<?xml version="1.0" standalone="no"?><!DOCTYPE svg PUBLIC "-//W3C//DTD SVG 1.1//EN" "http://www.w3.org/Graphics/SVG/1.1/DTD/svg11.dtd"><svg t="1746772986470" class="icon" viewBox="0 0 1024 1024" version="1.1" xmlns="http://www.w3.org/2000/svg" p-id="4155" xmlns:xlink="http://www.w3.org/1999/xlink" width="200" height="200"><path d="M500.76 957.25l165.95-44.35-121.6-121.05zM215.27 244.84h534.22V423h118.79V237.14a87 87 0 0 0 62.62-83.42c0-48-39.09-87-87.29-87a87.22 87.22 0 0 0-82.81 59.38H207.22a87.3 87.3 0 0 0-82.8-59.38c-48.19 0-87.29 38.93-87.29 87a87 87 0 0 0 59.35 82.4v551.72a87 87 0 0 0-59.35 82.42c0 48 39.1 86.93 87.29 86.93a87.31 87.31 0 0 0 82.78-59.32h245.46V779.14H215.27z m340.06 534.05l123 122.57 252.48-251.67L807.9 527.24zM976.1 552.62l-70.6-70.34a37.23 37.23 0 0 0-52.5 0l-33.47 33.39 122.92 122.5 0.1 0.13 33.56-33.39a37.14 37.14 0 0 0-0.01-52.29z" fill="#d81e06" p-id="4156"></path></svg>